<?xml version="1.0" encoding="UTF-8" standalone="no"?>
<svg width="44px" height="44px" viewBox="0 0 44 44" version="1.1" xmlns="http://www.w3.org/2000/svg" xmlns:xlink="http://www.w3.org/1999/xlink" xmlns:sketch="http://www.bohemiancoding.com/sketch/ns">
    <title>view-off</title>
    <description>Created with Sketch (http://www.bohemiancoding.com/sketch)</description>
    <defs></defs>
    <g id="Page-1" stroke="none" stroke-width="1" fill="none" fill-rule="evenodd" sketch:type="MSPage">
        <g id="back---no-sidebar" sketch:type="MSLayerGroup" transform="translate(-581.000000, -57.000000)" fill="#FFFFFF">
            <g id="icon-off" transform="translate(590.000000, 66.000000)" sketch:type="MSShapeGroup">
                <path d="M24.7218254,25.7218254 L25.7218254,24.7218254 L1.27817459,0.278174593 L0.278174593,1.27817459 L24.7218254,25.7218254 Z" id="Path" opacity="1.02"></path>
                <path d="M12.6956728,19 C7.92034972,19 3.67129424,14.2190289 3.67129424,14.2190289 C3.27893204,13.827579 3.27790631,13.1831209 3.65973252,12.7922308 C3.65973252,12.7922308 4.98429603,11.3023964 6.98410437,9.98410437 L9.23542606,12.2354261 C9.08338999,12.6276446 9,13.0540839 9,13.5 C9,15.4329967 10.5670033,17 12.5,17 C12.9459161,17 13.3723554,16.91661 13.7645739,16.7645739 L15.4932186,18.4932186 C14.6021952,18.8048112 13.6594161,19 12.6956728,19 Z" id="Oval-1" opacity="1.1"></path>
                <path d="M21.7316132,14.2077692 C22.1134394,13.8168791 22.1124136,13.172421 21.7200515,12.7809711 C21.7200515,12.7809711 17.470996,8 12.6956728,8 C12.1754662,8 11.6613677,8.05687009 11.1582198,8.15821983 L13.0416597,10.0416597 C14.5409141,10.274584 15.725416,11.4590859 15.9583402,12.9583402 L19.3491651,16.3491651 C20.8123203,15.2417658 21.7316132,14.2077692 21.7316132,14.2077692 Z" id="Oval-1" opacity="0.200284091"></path>
            </g>
        </g>
    </g>
</svg>