<?xml version="1.0" encoding="UTF-8" standalone="no"?>
<svg width="44px" height="44px" viewBox="0 0 44 44" version="1.1" xmlns="http://www.w3.org/2000/svg" xmlns:xlink="http://www.w3.org/1999/xlink" xmlns:sketch="http://www.bohemiancoding.com/sketch/ns">
    <title>view-on</title>
    <description>Created with Sketch (http://www.bohemiancoding.com/sketch)</description>
    <defs></defs>
    <g id="Page-1" stroke="none" stroke-width="1" fill="none" fill-rule="evenodd" sketch:type="MSPage">
        <g id="front---sidebar" sketch:type="MSLayerGroup" transform="translate(-581.000000, -57.000000)" fill="#FFFFFF">
            <g id="icon-on" transform="translate(590.000000, 66.000000)" sketch:type="MSShapeGroup">
                <path d="M6.64700417,7.64700417 C7.08685523,7.41615846 7.54076936,7.20025801 8.00598972,7.00598972 L1.27817459,0.278174593 L0.278174593,1.27817459 L6.64700417,7.64700417 Z M18.2041743,19.2041743 C18.6455523,18.9777306 19.0732895,18.735689 19.4846605,18.4846605 L25.7218254,24.7218254 L24.7218254,25.7218254 L18.2041743,19.2041743 Z" id="Path" opacity="0.12"></path>
                <path d="M21.7316132,14.2077692 C22.1134394,13.8168791 22.1124136,13.172421 21.7200515,12.7809711 C21.7200515,12.7809711 17.470996,8 12.6956728,8 C7.92034972,8 3.65973252,12.7922308 3.65973252,12.7922308 C3.27790631,13.1831209 3.27893204,13.827579 3.67129424,14.2190289 C3.67129424,14.2190289 7.92034972,19 12.6956728,19 C17.470996,19 21.7316132,14.2077692 21.7316132,14.2077692 Z M16,13.5 C16,11.5670033 14.4329967,10 12.5,10 C10.5670033,10 9,11.5670033 9,13.5 C9,15.4329967 10.5670033,17 12.5,17 C14.4329967,17 16,15.4329967 16,13.5 Z M14,13.5 C14,12.6715728 13.3284272,12 12.5,12 C11.6715728,12 11,12.6715728 11,13.5 C11,14.3284272 11.6715728,15 12.5,15 C13.3284272,15 14,14.3284272 14,13.5 Z" id="Oval-1" opacity="0.4"></path>
            </g>
        </g>
    </g>
</svg>